<svg xmlns="http://www.w3.org/2000/svg" viewBox="0 0 512 512" style="enable-background:new 0 0 512 512" xml:space="preserve"><path style="fill:#995c0d" d="M130.464 473.013h-20.651c-14.029 0-26.726-5.689-35.931-14.882C64.689 448.926 59 436.217 59 422.188c0-28.058 22.756-50.813 50.813-50.813h343.006v101.638H203.282"/><path style="fill:#b27214" d="M59.001 422.193V59.433c0-28.064 22.751-50.815 50.815-50.815h343.006v362.76"/><path style="fill:#ccc" d="M414.715 371.374v66.549H87.856c-6.587-20.176 0-66.549 0-66.549h326.859zM412.896 289.918V88.054c-21.935 0-39.718-17.782-39.718-39.718H191.276c0 21.935-17.782 39.718-39.718 39.718v201.865c21.935 0 39.718 17.782 39.718 39.718h181.902c0-21.936 17.782-39.719 39.718-39.719z"/><path style="fill:#f95428" d="m203.282 503.551-36.409-22.756-36.409 22.756v-98.987h72.818z"/><path d="M452.91 48.494a8.533 8.533 0 0 0 8.533-8.533V8.533A8.533 8.533 0 0 0 452.91 0H109.905C77.179 0 50.557 26.624 50.557 59.349v362.71l-.001.044c0 6.277.98 12.462 2.909 18.373a59.572 59.572 0 0 0 14.476 23.608c11.221 11.206 26.122 17.377 41.961 17.377h12.118v22.006a8.533 8.533 0 0 0 13.056 7.236l31.886-19.929 31.886 19.929a8.535 8.535 0 0 0 8.66.228 8.53 8.53 0 0 0 4.396-7.464v-22.006h241.003a8.533 8.533 0 0 0 8.533-8.533l.003-404.522a8.533 8.533 0 0 0-17.066 0v294.352H118.439v-62.242a8.533 8.533 0 0 0-17.066 0v62.865c-13.122 1.898-24.864 8.101-33.749 17.13V59.349c0-20.392 14.511-37.458 33.749-41.416v32.106a8.533 8.533 0 0 0 17.066 0V17.067h325.939v22.894a8.531 8.531 0 0 0 8.532 8.533zM171.484 473.475a8.527 8.527 0 0 0-9.046 0l-23.353 14.595v-75.057h55.751V488.069l-23.352-14.594zm272.889-9.081h-232.47v-18.021h202.9a8.533 8.533 0 0 0 8.533-8.533v-58.016h21.036l.001 84.57zm-334.472-84.571H406.27v16.123H272.775a8.533 8.533 0 0 0 0 17.066H406.27v16.293H211.904v-16.293h8.533a8.533 8.533 0 0 0 0-17.066H110.073a8.533 8.533 0 0 0 0 17.066h11.947v16.293H98.695a8.533 8.533 0 0 0 0 17.066h23.324v18.021h-12.118c-11.283 0-21.903-4.399-29.897-12.382a42.448 42.448 0 0 1-10.312-16.821 42.107 42.107 0 0 1-2.071-13.088c.001-23.311 18.968-42.278 42.28-42.278z"/><path d="M109.905 70.542a8.533 8.533 0 0 0-8.533 8.533v190.588a8.533 8.533 0 0 0 17.066 0V79.076a8.533 8.533 0 0 0-8.533-8.534zM257.275 338.086h115.991a8.533 8.533 0 0 0 8.533-8.533c0-17.195 13.989-31.184 31.184-31.184a8.533 8.533 0 0 0 8.533-8.533V87.97a8.533 8.533 0 0 0-8.533-8.533c-17.195 0-31.184-13.989-31.184-31.184a8.533 8.533 0 0 0-8.533-8.533H191.365a8.533 8.533 0 0 0-8.533 8.533c0 17.195-13.989 31.184-31.184 31.184a8.533 8.533 0 0 0-8.533 8.533v201.865a8.533 8.533 0 0 0 8.533 8.533c17.195 0 31.184 13.989 31.184 31.184a8.533 8.533 0 0 0 8.533 8.533h37.466a8.533 8.533 0 0 0 0-17.066h-29.688c-3.544-19.778-19.184-35.418-38.962-38.962V95.747c19.778-3.544 35.418-19.184 38.962-38.962h166.345c3.544 19.778 19.184 35.418 38.962 38.962v186.31c-19.778 3.544-35.418 19.184-38.962 38.962H257.275a8.534 8.534 0 0 0 0 17.067z"/><path d="M282.315 89.346a8.533 8.533 0 0 0-8.533 8.533v43.804h-42.667a8.533 8.533 0 0 0 0 17.066h42.667v121.173a8.533 8.533 0 0 0 17.066 0V158.751h42.667a8.533 8.533 0 0 0 0-17.066h-42.667V97.88a8.533 8.533 0 0 0-8.533-8.534z"/></svg>
