<?xml version="1.0" standalone="no"?>
<!DOCTYPE svg PUBLIC "-//W3C//DTD SVG 20010904//EN"
 "http://www.w3.org/TR/2001/REC-SVG-20010904/DTD/svg10.dtd">
<svg version="1.0" xmlns="http://www.w3.org/2000/svg"
 width="700.000000pt" height="700.000000pt" viewBox="0 0 700.000000 700.000000"
 preserveAspectRatio="xMidYMid meet">
<metadata>
Created by potrace 1.11, written by Peter Selinger 2001-2013
</metadata>
<g transform="translate(0.000000,700.000000) scale(0.100000,-0.100000)"
fill="#000000" stroke="none">
<path d="M3218 6995 c-2 -1 -57 -5 -123 -9 -346 -18 -627 -68 -830 -148 -196
-76 -330 -177 -394 -297 -52 -99 -58 -146 -54 -441 1 -146 3 -358 3 -471 l0
-207 844 0 c464 0 848 -2 852 -5 5 -3 9 -56 9 -119 l-1 -113 -1214 -2 c-668
-1 -1249 -4 -1290 -6 -69 -4 -178 -26 -225 -46 -231 -95 -383 -216 -503 -401
-48 -73 -75 -127 -147 -285 -34 -77 -94 -333 -111 -475 -3 -30 -8 -58 -11 -63
-8 -13 -17 -254 -17 -417 1 -222 5 -312 19 -420 7 -52 16 -117 19 -145 7 -52
39 -204 61 -290 34 -133 163 -416 215 -473 8 -9 29 -34 44 -55 93 -122 220
-219 366 -280 126 -52 168 -57 528 -57 l332 0 1 73 c0 39 1 245 1 457 1 413 7
489 53 644 79 273 232 457 472 567 45 21 93 40 105 43 13 2 50 11 83 19 108
27 209 30 1150 32 1001 2 967 1 1142 55 365 113 582 382 610 760 4 47 7 468 7
935 -1 789 -2 854 -19 910 -98 329 -406 549 -925 661 -14 3 -33 8 -42 10 -47
11 -59 13 -109 18 -30 4 -70 9 -89 11 -115 14 -140 17 -190 21 -60 5 -617 13
-622 9z m-612 -547 c217 -42 317 -286 193 -467 -36 -51 -111 -107 -156 -116
-15 -3 -44 -9 -63 -13 -41 -9 -139 14 -185 43 -104 68 -155 177 -140 303 6 54
32 110 72 158 17 20 113 89 113 81 0 -2 21 2 48 9 60 16 49 16 118 2z"/>
<path d="M5443 4778 c0 -489 -2 -523 -39 -671 -58 -236 -183 -428 -358 -550
-60 -42 -206 -107 -276 -123 -19 -4 -37 -8 -40 -9 -20 -5 -93 -17 -130 -21
-25 -3 -466 -7 -980 -8 -514 -1 -948 -5 -965 -9 -16 -4 -46 -9 -66 -11 -57 -7
-155 -35 -233 -66 -211 -84 -365 -228 -455 -427 -31 -69 -36 -86 -47 -147 -3
-16 -9 -39 -13 -50 -4 -12 -9 -43 -10 -71 -2 -27 -4 -66 -6 -85 -9 -83 -5
-1699 4 -1745 54 -280 291 -509 656 -635 100 -34 234 -70 324 -85 19 -3 37 -7
40 -9 3 -2 31 -7 61 -10 30 -3 64 -8 76 -10 39 -8 128 -18 224 -25 101 -8 771
-6 806 2 11 3 55 8 97 11 77 7 129 13 176 21 14 2 46 7 71 10 25 3 52 8 60 10
8 2 31 7 50 10 170 29 429 127 525 199 70 52 150 139 174 191 33 68 58 189 51
250 -3 28 -5 233 -5 457 l0 406 -835 0 c-459 1 -843 1 -852 1 -16 1 -18 14
-18 120 l0 118 1248 0 c686 0 1268 3 1293 7 84 13 104 17 179 42 219 73 397
217 527 424 42 69 113 211 141 285 15 40 79 280 88 330 13 71 16 1072 4 1165
-28 213 -114 486 -202 642 -21 37 -38 70 -38 73 0 2 -25 37 -56 77 -159 207
-339 322 -558 358 -33 5 -203 10 -377 10 l-316 0 0 -452z m-891 -3639 c50 -11
158 -74 158 -92 0 -5 13 -25 28 -45 61 -80 61 -217 0 -314 -117 -185 -376
-192 -503 -12 -52 73 -64 150 -40 264 8 40 67 117 115 152 42 30 117 55 167
57 12 1 46 -4 75 -10z"/>
</g>
</svg>
